<?xml version="1.0" standalone="no"?>
<!DOCTYPE svg PUBLIC "-//W3C//DTD SVG 20010904//EN"
 "http://www.w3.org/TR/2001/REC-SVG-20010904/DTD/svg10.dtd">
<svg version="1.0" xmlns="http://www.w3.org/2000/svg"
 width="665.000000pt" height="663.000000pt" viewBox="0 0 665.000000 663.000000"
 preserveAspectRatio="xMidYMid meet">

<g transform="translate(0.000000,663.000000) scale(0.100000,-0.100000)"
fill="#000000" stroke="none">
<path d="M2885 6623 c-612 -88 -1165 -326 -1640 -706 -129 -103 -399 -374
-502 -502 -390 -489 -615 -1015 -709 -1655 -21 -144 -30 -553 -15 -718 82
-932 544 -1775 1286 -2348 491 -379 1097 -617 1715 -674 127 -12 461 -15 567
-5 567 51 1034 206 1503 496 594 367 1071 939 1330 1593 93 236 159 482 201
756 20 126 23 185 23 455 1 314 -3 375 -44 606 -95 537 -334 1059 -684 1494
-105 131 -325 355 -449 458 -450 374 -940 606 -1526 724 -122 25 -139 26 -576
28 -247 2 -463 1 -480 -2z m860 -68 c602 -82 1142 -311 1620 -689 126 -100
397 -370 501 -501 264 -332 474 -738 590 -1138 40 -139 86 -362 105 -517 18
-138 19 -630 1 -760 -74 -543 -238 -988 -518 -1413 -521 -785 -1343 -1303
-2279 -1432 -160 -23 -554 -31 -726 -16 -1375 122 -2527 1108 -2864 2451 -34
136 -53 236 -77 410 -18 130 -17 621 1 760 78 612 302 1150 680 1635 104 135
382 415 512 518 345 272 722 469 1121 586 210 61 405 97 673 125 95 10 545 -3
660 -19z"/>
<path d="M3151 6383 c-5 -10 -24 -92 -41 -183 -18 -91 -36 -169 -40 -173 -4
-4 -41 70 -83 165 l-76 173 -48 -4 c-26 -1 -49 -4 -51 -6 -2 -2 46 -110 106
-242 l109 -238 49 4 c27 1 50 4 51 5 2 1 28 110 58 242 31 131 58 247 61 257
5 14 -1 17 -40 17 -33 0 -48 -5 -55 -17z"/>
<path d="M3459 6368 c-9 -17 -188 -412 -206 -455 -4 -10 9 -13 46 -13 l52 0
24 54 24 55 73 -5 c117 -8 114 -7 135 -72 l18 -57 48 -3 c31 -2 47 1 47 9 0 9
-94 327 -141 477 -10 30 -13 32 -59 32 -40 0 -51 -4 -61 -22z m79 -194 c13
-48 21 -89 18 -91 -7 -8 -116 7 -116 15 0 13 64 162 69 162 4 0 16 -39 29 -86z"/>
<path d="M3870 6306 c-48 -236 -88 -441 -86 -443 1 -2 23 -6 48 -9 l45 -6 18
93 c10 52 21 97 24 102 11 12 68 -13 84 -36 7 -12 30 -65 51 -118 l37 -95 52
-11 c29 -6 53 -10 55 -8 6 6 -62 178 -83 209 l-23 34 43 11 c97 24 136 146 74
225 -22 28 -90 52 -241 85 l-87 19 -11 -52z m174 -72 c33 -9 69 -23 79 -31 38
-35 8 -103 -46 -103 -42 1 -138 24 -139 33 -1 14 14 102 19 110 6 10 17 9 87
-9z"/>
<path d="M2234 6203 l-41 -16 -7 -120 c-10 -188 -8 -417 4 -417 6 0 26 6 45
14 33 14 34 16 37 77 l3 62 90 34 c74 28 91 32 100 20 5 -7 22 -28 36 -46 l27
-34 46 18 c25 10 46 20 46 24 0 8 -330 395 -339 398 -3 1 -24 -6 -47 -14z m98
-182 c66 -82 67 -84 11 -104 -74 -27 -73 -28 -73 73 0 50 3 90 8 89 4 0 28
-26 54 -58z"/>
<path d="M4431 6178 c-5 -13 -46 -115 -90 -227 -45 -112 -78 -207 -74 -211 24
-22 204 -93 248 -97 45 -5 55 -2 99 28 87 60 150 214 127 312 -18 80 -41 102
-166 162 -63 30 -119 55 -125 55 -6 0 -14 -10 -19 -22z m203 -170 c49 -70 -37
-278 -114 -278 -32 0 -140 40 -140 52 0 4 23 65 51 135 28 71 55 138 60 151
l9 22 59 -30 c33 -16 67 -40 75 -52z"/>
<path d="M1949 6078 l-37 -21 -7 -113 c-4 -63 -9 -114 -11 -114 -2 0 -43 25
-89 55 -47 30 -89 55 -93 55 -11 0 -92 -44 -92 -50 0 -3 61 -41 136 -85 l135
-80 50 -98 50 -98 39 22 c22 13 40 26 40 31 0 5 -20 48 -44 96 l-44 88 12 167
c8 113 8 167 1 167 -5 0 -26 -10 -46 -22z"/>
<path d="M2745 6058 c-22 -5 -56 -14 -76 -19 l-37 -9 10 -42 c5 -23 10 -44 12
-45 1 -2 39 5 84 14 88 18 88 19 76 82 -7 33 -9 34 -69 19z"/>
<path d="M4830 5744 c-92 -144 -128 -209 -121 -217 5 -7 23 -20 39 -29 l30
-18 57 90 c36 58 61 88 68 83 7 -4 43 -29 80 -56 64 -46 67 -50 54 -71 -8 -11
-33 -52 -57 -90 l-43 -69 34 -28 c19 -16 36 -29 39 -29 13 0 268 415 260 425
-5 5 -22 18 -39 28 l-31 18 -52 -81 -51 -80 -26 17 c-14 9 -50 34 -79 55 l-53
39 22 37 c13 20 36 57 52 81 l30 44 -34 28 c-19 16 -37 29 -41 29 -3 0 -65
-93 -138 -206z"/>
<path d="M3190 5763 c-230 -16 -425 -54 -635 -124 -589 -195 -1091 -621 -1379
-1170 -195 -372 -281 -720 -280 -1139 0 -215 10 -318 50 -511 175 -840 799
-1535 1621 -1805 272 -90 457 -118 763 -118 308 0 532 36 803 131 801 278
1409 968 1581 1792 40 193 50 296 50 511 1 405 -80 745 -262 1106 -343 680
-1015 1172 -1772 1298 -170 29 -387 40 -540 29z m455 -88 c526 -72 1021 -323
1385 -701 346 -359 564 -801 641 -1297 27 -168 31 -482 10 -637 -75 -549 -306
-1015 -693 -1397 -126 -125 -207 -190 -363 -295 -277 -184 -613 -312 -960
-364 -167 -25 -503 -25 -670 0 -347 52 -683 180 -960 364 -166 111 -260 189
-401 334 -364 375 -583 828 -655 1358 -19 139 -17 459 5 605 77 538 323 1021
705 1388 526 503 1244 739 1956 642z"/>
<path d="M3046 5494 c-911 -124 -1647 -796 -1847 -1689 -68 -302 -66 -678 6
-979 185 -778 792 -1403 1559 -1606 660 -174 1350 -38 1891 374 111 84 294
263 383 374 223 279 365 589 438 956 32 160 44 476 25 646 -46 396 -196 766
-444 1094 -83 111 -303 328 -412 409 -310 228 -667 374 -1033 421 -150 19
-426 20 -566 0z m1033 -318 c52 -115 166 -245 263 -301 76 -43 117 -103 132
-191 9 -49 -8 -128 -34 -165 -27 -37 -25 -44 8 -21 56 40 112 62 156 62 62 0
130 -49 175 -126 53 -92 182 -213 274 -259 42 -21 77 -41 77 -44 0 -3 -12 -41
-25 -85 -22 -66 -26 -99 -26 -205 -1 -88 4 -141 15 -176 39 -122 -5 -251 -104
-307 -43 -25 -51 -38 -22 -38 10 0 39 -13 63 -29 73 -46 102 -143 75 -249 -31
-117 -15 -318 33 -427 l20 -45 -72 -37 c-92 -48 -211 -161 -257 -243 -48 -85
-84 -125 -134 -149 -57 -28 -148 -28 -201 -1 -22 11 -41 20 -42 20 -2 0 11
-28 28 -62 21 -41 32 -78 32 -108 1 -64 -35 -134 -87 -170 -105 -73 -128 -94
-189 -171 -38 -46 -78 -111 -93 -148 -15 -36 -30 -69 -33 -73 -4 -4 -38 4 -76
19 -102 38 -274 44 -374 14 -164 -50 -284 25 -327 204 l-7 30 -8 -38 c-32
-142 -164 -232 -289 -197 -142 39 -271 37 -397 -6 -62 -21 -77 -24 -84 -13 -5
8 -9 18 -9 22 0 5 -13 36 -30 70 -42 87 -155 217 -229 262 -79 49 -114 101
-119 180 -3 54 0 67 32 128 20 37 36 69 36 72 0 2 -25 -9 -56 -26 -129 -67
-257 -22 -329 118 -43 84 -181 220 -270 265 -38 19 -69 39 -67 44 1 5 14 43
28 84 36 102 45 275 19 378 -14 58 -15 80 -6 124 19 92 53 127 156 162 16 6
11 12 -33 37 -95 54 -139 164 -112 277 7 31 15 115 17 185 4 115 2 137 -21
218 -14 49 -26 92 -26 94 0 2 33 20 74 40 97 48 211 153 268 247 93 153 198
177 340 77 38 -27 41 -24 13 17 -30 44 -39 88 -33 157 8 95 47 150 154 217 81
50 187 173 230 268 l34 72 37 -16 c124 -53 273 -68 397 -39 65 16 85 16 129 6
56 -13 117 -61 117 -92 0 -10 4 -20 9 -23 5 -3 12 -22 16 -43 5 -27 9 -33 16
-22 7 11 9 11 9 -3 0 -10 -6 -18 -14 -18 -48 0 -64 -127 -23 -177 39 -47 40
-62 7 -93 -27 -25 -30 -34 -30 -88 0 -50 4 -66 25 -90 14 -17 25 -39 25 -50 0
-11 -11 -27 -25 -36 -23 -15 -25 -23 -25 -91 0 -63 3 -78 20 -92 27 -24 25
-59 -6 -96 -26 -31 -26 -33 -19 -139 l7 -107 -36 -31 c-38 -34 -61 -87 -53
-126 3 -19 -3 -31 -28 -49 -17 -14 -43 -25 -56 -25 -60 0 -256 127 -244 158
33 86 30 203 -8 321 -23 70 -25 72 -30 40 -2 -19 -15 -68 -27 -109 -18 -60
-22 -90 -17 -155 2 -44 10 -92 17 -107 11 -23 10 -31 -4 -53 -34 -52 -73 -67
-161 -62 -101 5 -230 50 -219 76 4 9 9 59 12 112 3 81 0 110 -18 173 -13 42
-26 73 -30 69 -10 -12 -49 -156 -56 -207 -7 -51 23 -204 61 -303 30 -80 177
-315 230 -367 205 -205 364 -354 384 -361 22 -7 23 -10 17 -64 -18 -166 -17
-161 -47 -177 -16 -8 -26 -20 -23 -27 3 -8 -12 -32 -33 -53 -45 -47 -61 -67
-90 -114 -12 -19 -32 -42 -45 -50 -51 -32 -89 -50 -106 -50 -10 0 -22 -3 -26
-7 -3 -4 -16 -8 -28 -10 -38 -6 -90 -45 -104 -79 -20 -49 -17 -79 12 -124 15
-22 25 -42 23 -44 -14 -12 -71 -36 -87 -36 -10 0 -27 10 -38 21 -19 22 -19 22
8 15 20 -4 34 0 53 17 l27 22 -19 33 c-22 39 -52 49 -103 32 -98 -32 -73 -184
39 -242 l46 -23 865 -3 c969 -3 937 -5 1002 66 27 31 33 45 36 97 5 82 -15
109 -83 107 -60 0 -81 -19 -68 -59 5 -15 19 -32 31 -38 29 -13 28 -23 -4 -37
-22 -10 -32 -9 -70 12 l-45 23 29 31 c39 41 71 108 54 114 -7 2 -12 12 -12 22
0 20 -53 69 -76 71 -17 2 -24 4 -44 12 -8 3 -28 8 -45 10 -49 6 -100 34 -134
72 -17 20 -31 39 -31 44 0 16 -97 121 -112 121 -5 0 -8 6 -5 13 3 6 -13 30
-35 53 -43 45 -54 86 -44 156 6 42 12 48 107 118 232 171 414 422 504 695 55
169 68 235 61 315 -6 71 -55 240 -56 193 0 -12 -12 -58 -26 -103 -23 -70 -26
-93 -21 -163 3 -45 7 -90 9 -100 2 -15 -15 -25 -92 -53 -52 -19 -107 -34 -121
-34 -22 0 -149 71 -149 84 0 3 7 35 16 73 20 85 13 181 -20 277 -21 61 -24 65
-29 40 -2 -16 -14 -60 -26 -99 -21 -70 -27 -182 -12 -235 6 -23 1 -29 -79 -73
-110 -63 -136 -67 -195 -33 -25 15 -45 34 -45 43 0 35 -41 100 -74 118 -30 16
-33 22 -30 53 1 19 8 40 13 45 6 6 11 41 11 79 0 61 -3 70 -29 97 -34 35 -32
67 5 82 23 8 24 13 24 94 0 82 -1 86 -25 95 -37 14 -34 55 5 75 30 15 30 17
30 96 0 76 -1 80 -25 89 -35 13 -35 62 0 78 25 12 26 15 23 94 -3 75 -5 84
-25 93 -34 15 -31 60 5 77 24 12 28 20 32 73 l5 59 44 9 c32 6 60 4 106 -8 49
-14 90 -16 177 -13 109 5 141 13 265 67 2 1 16 -28 32 -63z m-684 -344 c-5
-13 -7 -12 -19 4 -12 15 -16 16 -30 5 -14 -12 -16 -9 -16 33 0 44 1 46 24 40
15 -3 27 -1 32 8 11 15 19 -65 9 -90z m-10 -270 c-3 -4 -10 0 -15 7 -4 8 -15
11 -24 8 -13 -5 -16 2 -16 39 0 40 2 45 19 39 11 -3 23 0 28 7 5 8 9 -7 11
-41 2 -29 0 -56 -3 -59z m-16 -177 c19 6 21 3 21 -39 0 -48 -7 -55 -29 -33
-11 10 -14 10 -18 0 -10 -28 -23 -11 -23 30 0 46 9 65 21 46 4 -6 16 -8 28 -4z
m-5 -367 c9 -37 7 -110 -6 -153 l-11 -40 -14 50 c-21 70 -26 111 -19 140 8 32
41 34 50 3z m-510 -64 c0 -38 -6 -82 -14 -99 l-13 -30 -7 25 c-13 41 -11 155
2 168 24 24 33 5 32 -64z m1044 5 c4 -46 -16 -149 -28 -149 -21 0 -28 147 -9
181 16 31 34 17 37 -32z m-1492 -64 c-8 -76 -26 -131 -37 -114 -14 22 -11 173
3 187 23 23 40 -16 34 -73z m1918 69 c10 -27 6 -107 -8 -154 l-14 -45 -11 28
c-14 36 -14 142 -1 168 13 23 26 24 34 3z m-1420 -351 c25 -43 88 -131 140
-197 167 -210 204 -315 77 -222 -106 79 -225 222 -282 340 -43 87 -47 116 -23
140 27 28 43 18 88 -61z m496 27 c33 -47 46 -138 32 -223 -12 -68 -95 -267
-113 -267 -12 0 -40 132 -51 245 -12 124 -1 205 33 249 29 37 71 35 99 -4z
m441 20 c48 -26 -6 -166 -120 -309 -76 -94 -102 -120 -174 -175 -128 -96 -89
19 76 222 43 53 102 136 130 185 29 48 56 87 60 87 5 0 17 -5 28 -10z m-1258
-48 c23 3 48 6 56 9 10 2 38 -30 79 -91 191 -280 269 -391 314 -442 46 -54 48
-58 25 -58 -52 0 -240 154 -339 278 -116 144 -228 291 -234 306 -5 13 -2 14
25 5 17 -6 50 -9 74 -7z m1534 -19 c35 4 63 3 63 -1 0 -4 -31 -45 -68 -92 -37
-47 -88 -114 -114 -150 -91 -129 -337 -340 -397 -340 -25 0 -24 1 16 43 51 53
117 144 272 374 114 169 125 182 144 171 12 -6 45 -8 84 -5z m-448 -894 c28
-16 60 -46 71 -65 12 -19 25 -34 29 -34 4 0 19 -21 32 -46 13 -26 29 -49 36
-51 7 -3 13 -9 13 -14 0 -4 21 -28 47 -53 44 -41 74 -56 143 -70 40 -9 90 -44
90 -63 0 -22 53 -21 -770 -19 -305 0 -568 -1 -585 -3 -51 -6 -165 11 -165 24
0 19 39 41 108 60 34 10 62 22 62 26 0 5 5 9 11 9 19 0 72 60 154 173 47 66
92 118 110 127 17 8 32 18 33 23 2 4 122 7 268 7 l264 0 49 -31z m-980 -442
c8 -11 5 -19 -17 -38 -41 -38 -51 -41 -65 -27 -16 16 -29 62 -20 72 12 11 90
6 102 -7z m1441 -6 c0 -11 -10 -32 -23 -46 l-22 -26 -39 34 c-50 42 -42 57 30
57 47 0 54 -3 54 -19z m-1193 -58 l-27 -28 -35 19 c-19 11 -35 23 -35 28 0 4
28 8 62 8 l63 0 -28 -27z m313 -3 c-39 -34 -60 -32 -100 6 l-25 24 80 0 80 -1
-35 -29z m305 5 c-37 -30 -36 -30 -81 0 l-37 25 74 0 74 0 -30 -25z m301 1
c-26 -22 -30 -22 -57 -9 -49 25 -43 33 23 33 l63 -1 -29 -23z m-752 -27 c32
-24 53 -46 49 -52 -19 -31 -80 -87 -94 -87 -10 0 -40 19 -68 43 l-51 42 52 47
c29 26 54 48 55 48 1 0 27 -19 57 -41z m317 -10 c28 -28 47 -54 43 -58 -5 -4
-28 -22 -52 -40 l-43 -33 -38 27 c-22 14 -48 36 -58 47 -18 20 -17 21 32 64
27 24 53 44 57 44 4 0 31 -23 59 -51z m279 36 c6 -8 32 -26 56 -40 24 -14 44
-30 44 -35 0 -13 -93 -90 -109 -90 -8 0 -43 19 -78 42 -71 47 -71 48 12 104
57 39 58 39 75 19z m328 -48 c17 -17 32 -36 32 -43 0 -14 -84 -74 -103 -74 -7
0 -32 19 -55 43 l-43 44 46 42 c51 47 61 46 123 -12z m-1202 7 l44 -36 -43
-39 c-57 -53 -75 -56 -125 -23 -23 15 -42 32 -42 37 0 15 92 97 108 97 8 0 33
-16 58 -36z m408 -105 c14 -11 26 -25 26 -30 0 -10 -103 -13 -113 -3 -6 6 42
53 54 54 4 0 18 -9 33 -21z m327 -1 c21 -11 36 -25 33 -30 -6 -10 -134 -11
-134 -1 0 7 50 52 59 53 2 0 21 -10 42 -22z m-626 -4 c38 -25 30 -34 -30 -34
-59 0 -68 9 -32 33 28 20 33 20 62 1z m917 -1 c28 -25 22 -33 -27 -33 -49 0
-53 4 -28 32 20 22 31 23 55 1z m274 2 c10 -8 28 -15 39 -15 46 -1 -11 -20
-61 -20 -61 0 -70 7 -41 31 27 22 38 23 63 4z m-1489 -11 c13 -4 20 -10 17
-15 -6 -11 -65 -12 -90 -2 -16 6 -16 7 2 14 24 10 43 10 71 3z"/>
<path d="M2808 4726 c-16 -5 -28 -13 -28 -17 0 -8 161 -472 166 -477 6 -8 64
10 64 20 0 14 -161 472 -169 479 -3 3 -18 1 -33 -5z"/>
<path d="M3788 4523 c-54 -120 -99 -224 -100 -232 -3 -13 48 -38 58 -28 7 7
205 450 202 452 -9 7 -48 25 -55 25 -5 0 -52 -98 -105 -217z"/>
<path d="M4147 4251 c-64 -67 -117 -124 -117 -129 0 -5 10 -18 23 -29 l22 -21
119 125 119 124 -25 25 -24 25 -117 -120z"/>
<path d="M2392 4317 l-21 -22 57 -64 57 -63 24 26 24 25 -53 61 c-28 33 -55
60 -59 60 -4 0 -17 -10 -29 -23z"/>
<path d="M1921 3890 c-8 -23 -7 -32 2 -35 7 -3 73 -27 147 -55 74 -27 140 -50
147 -50 10 0 30 58 21 64 -7 6 -289 106 -297 106 -5 0 -14 -14 -20 -30z"/>
<path d="M4623 3876 c-89 -23 -165 -45 -168 -48 -4 -4 -4 -21 0 -38 5 -22 11
-29 23 -26 15 5 196 52 294 77 35 9 36 11 28 41 -5 17 -11 32 -12 33 -2 1 -76
-16 -165 -39z"/>
<path d="M4417 3353 c-4 -3 -7 -19 -7 -35 l0 -28 130 0 130 0 0 35 0 35 -123
0 c-68 0 -127 -3 -130 -7z"/>
<path d="M2098 3333 l-78 -4 0 -34 c0 -34 1 -35 43 -35 23 0 93 3 155 7 l112
6 0 34 0 33 -77 -2 c-43 -1 -113 -4 -155 -5z"/>
<path d="M2230 2864 c-107 -53 -196 -97 -198 -99 -2 -2 4 -17 12 -34 l16 -31
148 74 c81 40 165 81 187 91 64 29 67 33 49 66 -8 16 -16 29 -17 29 -1 -1 -90
-44 -197 -96z"/>
<path d="M4311 2883 c-7 -14 -8 -30 -4 -34 7 -6 400 -189 408 -189 5 0 28 61
24 64 -7 6 -402 186 -409 186 -4 0 -12 -12 -19 -27z"/>
<path d="M3142 2708 c8 -23 72 -30 240 -26 143 3 170 6 185 21 16 16 7 17
-206 17 -169 0 -222 -3 -219 -12z"/>
<path d="M3033 2595 c-26 -16 -62 -54 -97 -105 -31 -44 -56 -83 -57 -87 0 -4
-20 -24 -44 -43 -86 -69 -36 -77 65 -11 40 27 68 57 106 116 29 44 67 97 84
118 32 37 32 37 9 37 -13 0 -43 -11 -66 -25z"/>
<path d="M3214 2607 c-50 -29 -75 -59 -119 -143 -52 -98 -80 -134 -106 -134
-9 0 -19 -7 -23 -15 -4 -12 4 -15 44 -15 62 0 93 12 129 49 32 33 33 35 56
136 13 56 22 75 52 102 34 31 34 33 12 33 -13 -1 -33 -6 -45 -13z"/>
<path d="M3327 2597 c-8 -13 -23 -63 -33 -111 -11 -57 -27 -102 -45 -129 -15
-23 -25 -45 -23 -49 3 -4 68 -8 145 -8 117 0 139 2 139 15 0 8 -7 15 -15 15
-8 0 -15 6 -15 14 0 7 -6 19 -14 25 -13 11 -19 34 -36 155 -5 32 -16 67 -26
77 -23 26 -58 24 -77 -4z"/>
<path d="M3610 2611 c0 -6 6 -11 14 -11 7 0 26 -19 42 -42 16 -24 32 -45 35
-48 4 -3 22 -30 42 -61 39 -60 83 -103 119 -115 13 -4 25 -10 28 -14 3 -4 17
-10 33 -14 20 -5 27 -3 27 9 0 8 -6 15 -14 15 -19 0 -85 74 -141 159 -26 39
-61 82 -79 96 -35 26 -106 44 -106 26z"/>
<path d="M3509 2574 c11 -14 34 -71 51 -127 39 -128 57 -147 141 -147 32 0 59
4 59 9 0 5 -15 19 -34 32 -36 25 -59 62 -75 122 -18 71 -86 137 -141 137 l-21
0 20 -26z"/>
<path d="M1427 5716 c-36 -13 -98 -58 -186 -135 l-45 -38 148 -192 c81 -105
151 -191 156 -191 12 0 161 131 188 165 66 84 48 199 -50 310 -66 75 -144 105
-211 81z m90 -106 c40 -24 99 -103 114 -152 16 -50 0 -85 -61 -137 l-49 -41
-95 124 c-53 69 -96 129 -96 135 0 6 23 29 51 51 57 45 88 50 136 20z"/>
<path d="M5260 5439 c-191 -225 -176 -199 -136 -238 l34 -33 156 182 c86 100
156 185 156 189 0 4 -15 21 -32 38 l-33 32 -145 -170z"/>
<path d="M5413 5268 l-183 -162 24 -30 c12 -16 27 -31 32 -33 5 -2 60 42 122
97 61 56 112 95 112 88 0 -7 -25 -89 -54 -182 l-54 -170 30 -38 c36 -44 9 -61
236 141 l161 144 -20 28 c-11 16 -24 31 -30 34 -5 4 -61 -39 -125 -96 -63 -56
-116 -100 -118 -98 -2 2 21 78 50 169 29 91 53 174 54 185 0 12 -12 35 -27 53
l-28 32 -182 -162z"/>
<path d="M1056 5389 c-14 -17 -26 -34 -26 -37 0 -4 76 -83 170 -177 l169 -169
21 19 c53 48 55 45 -126 226 -93 93 -172 169 -176 169 -3 0 -18 -14 -32 -31z"/>
<path d="M926 5236 c-14 -19 -26 -41 -26 -48 0 -7 45 -80 99 -163 54 -82 95
-151 92 -153 -4 -1 -78 23 -164 53 -87 30 -164 55 -171 55 -16 0 -68 -72 -58
-81 4 -4 110 -41 236 -83 248 -82 239 -81 276 -21 l21 34 -127 203 c-70 112
-132 211 -139 221 -11 16 -14 15 -39 -17z"/>
<path d="M5735 4864 c-99 -75 -187 -139 -194 -144 -13 -7 -10 -15 12 -49 18
-27 32 -39 40 -34 16 9 359 263 371 274 7 7 -37 91 -47 88 -1 0 -83 -61 -182
-135z"/>
<path d="M6011 4234 c0 -11 3 -14 6 -6 3 7 2 16 -1 19 -3 4 -6 -2 -5 -13z"/>
<path d="M421 4094 c0 -11 3 -14 6 -6 3 7 2 16 -1 19 -3 4 -6 -2 -5 -13z"/>
<path d="M401 4024 c0 -11 3 -14 6 -6 3 7 2 16 -1 19 -3 4 -6 -2 -5 -13z"/>
<path d="M5911 4014 c0 -11 3 -14 6 -6 3 7 2 16 -1 19 -3 4 -6 -2 -5 -13z"/>
<path d="M6241 3994 c0 -11 3 -14 6 -6 3 7 2 16 -1 19 -3 4 -6 -2 -5 -13z"/>
<path d="M391 3984 c0 -11 3 -14 6 -6 3 7 2 16 -1 19 -3 4 -6 -2 -5 -13z"/>
<path d="M551 3974 c0 -11 3 -14 6 -6 3 7 2 16 -1 19 -3 4 -6 -2 -5 -13z"/>
<path d="M5931 3934 c0 -11 3 -14 6 -6 3 7 2 16 -1 19 -3 4 -6 -2 -5 -13z"/>
<path d="M701 3924 c0 -11 3 -14 6 -6 3 7 2 16 -1 19 -3 4 -6 -2 -5 -13z"/>
<path d="M6101 3904 c0 -11 3 -14 6 -6 3 7 2 16 -1 19 -3 4 -6 -2 -5 -13z"/>
<path d="M371 3894 c0 -11 3 -14 6 -6 3 7 2 16 -1 19 -3 4 -6 -2 -5 -13z"/>
<path d="M531 3894 c0 -11 3 -14 6 -6 3 7 2 16 -1 19 -3 4 -6 -2 -5 -13z"/>
<path d="M6261 3894 c0 -11 3 -14 6 -6 3 7 2 16 -1 19 -3 4 -6 -2 -5 -13z"/>
<path d="M5941 3884 c0 -11 3 -14 6 -6 3 7 2 16 -1 19 -3 4 -6 -2 -5 -13z"/>
<path d="M521 3854 c0 -11 3 -14 6 -6 3 7 2 16 -1 19 -3 4 -6 -2 -5 -13z"/>
<path d="M361 3844 c0 -11 3 -14 6 -6 3 7 2 16 -1 19 -3 4 -6 -2 -5 -13z"/>
<path d="M682 3840 c0 -14 2 -19 5 -12 2 6 2 18 0 25 -3 6 -5 1 -5 -13z"/>
<path d="M6271 3844 c0 -11 3 -14 6 -6 3 7 2 16 -1 19 -3 4 -6 -2 -5 -13z"/>
<path d="M5952 3830 c0 -14 2 -19 5 -12 2 6 2 18 0 25 -3 6 -5 1 -5 -13z"/>
<path d="M351 3794 c0 -11 3 -14 6 -6 3 7 2 16 -1 19 -3 4 -6 -2 -5 -13z"/>
<path d="M6281 3794 c0 -11 3 -14 6 -6 3 7 2 16 -1 19 -3 4 -6 -2 -5 -13z"/>
<path d="M671 3784 c0 -11 3 -14 6 -6 3 7 2 16 -1 19 -3 4 -6 -2 -5 -13z"/>
<path d="M5962 3770 c0 -14 2 -19 5 -12 2 6 2 18 0 25 -3 6 -5 1 -5 -13z"/>
<path d="M341 3744 c0 -11 3 -14 6 -6 3 7 2 16 -1 19 -3 4 -6 -2 -5 -13z"/>
<path d="M6291 3744 c0 -11 3 -14 6 -6 3 7 2 16 -1 19 -3 4 -6 -2 -5 -13z"/>
<path d="M661 3724 c0 -11 3 -14 6 -6 3 7 2 16 -1 19 -3 4 -6 -2 -5 -13z"/>
<path d="M5972 3710 c0 -14 2 -19 5 -12 2 6 2 18 0 25 -3 6 -5 1 -5 -13z"/>
<path d="M331 3694 c0 -11 3 -14 6 -6 3 7 2 16 -1 19 -3 4 -6 -2 -5 -13z"/>
<path d="M652 3660 c0 -14 2 -19 5 -12 2 6 2 18 0 25 -3 6 -5 1 -5 -13z"/>
<path d="M642 3610 c0 -14 2 -19 5 -12 2 6 2 18 0 25 -3 6 -5 1 -5 -13z"/>
<path d="M6065 3397 c-18 -18 -39 -52 -46 -75 -11 -38 -10 -48 7 -90 56 -134
224 -121 265 22 14 49 0 95 -42 137 -36 36 -43 39 -95 39 -50 0 -60 -4 -89
-33z"/>
<path d="M415 3351 c-69 -31 -105 -133 -70 -200 27 -53 71 -81 126 -81 44 0
55 5 91 38 35 33 41 46 45 88 6 56 -9 94 -51 133 -28 26 -105 38 -141 22z"/>
<path d="M5931 2874 c0 -11 3 -14 6 -6 3 7 2 16 -1 19 -3 4 -6 -2 -5 -13z"/>
<path d="M5921 2824 c0 -11 3 -14 6 -6 3 7 2 16 -1 19 -3 4 -6 -2 -5 -13z"/>
<path d="M6242 2790 c0 -14 2 -19 5 -12 2 6 2 18 0 25 -3 6 -5 1 -5 -13z"/>
<path d="M691 2784 c0 -11 3 -14 6 -6 3 7 2 16 -1 19 -3 4 -6 -2 -5 -13z"/>
<path d="M5912 2760 c0 -14 2 -19 5 -12 2 6 2 18 0 25 -3 6 -5 1 -5 -13z"/>
<path d="M6231 2734 c0 -11 3 -14 6 -6 3 7 2 16 -1 19 -3 4 -6 -2 -5 -13z"/>
<path d="M701 2724 c0 -11 3 -14 6 -6 3 7 2 16 -1 19 -3 4 -6 -2 -5 -13z"/>
<path d="M5902 2700 c0 -14 2 -19 5 -12 2 6 2 18 0 25 -3 6 -5 1 -5 -13z"/>
<path d="M381 2694 c0 -11 3 -14 6 -6 3 7 2 16 -1 19 -3 4 -6 -2 -5 -13z"/>
<path d="M6221 2684 c0 -11 3 -14 6 -6 3 7 2 16 -1 19 -3 4 -6 -2 -5 -13z"/>
<path d="M711 2664 c0 -11 3 -14 6 -6 3 7 2 16 -1 19 -3 4 -6 -2 -5 -13z"/>
<path d="M5892 2650 c0 -14 2 -19 5 -12 2 6 2 18 0 25 -3 6 -5 1 -5 -13z"/>
<path d="M391 2644 c0 -11 3 -14 6 -6 3 7 2 16 -1 19 -3 4 -6 -2 -5 -13z"/>
<path d="M6212 2640 c0 -14 2 -19 5 -12 2 6 2 18 0 25 -3 6 -5 1 -5 -13z"/>
<path d="M6051 2634 c0 -11 3 -14 6 -6 3 7 2 16 -1 19 -3 4 -6 -2 -5 -13z"/>
<path d="M721 2604 c0 -11 3 -14 6 -6 3 7 2 16 -1 19 -3 4 -6 -2 -5 -13z"/>
<path d="M401 2594 c0 -11 3 -14 6 -6 3 7 2 16 -1 19 -3 4 -6 -2 -5 -13z"/>
<path d="M731 2554 c0 -11 3 -14 6 -6 3 7 2 16 -1 19 -3 4 -6 -2 -5 -13z"/>
<path d="M571 2544 c0 -11 3 -14 6 -6 3 7 2 16 -1 19 -3 4 -6 -2 -5 -13z"/>
<path d="M6191 2544 c0 -11 3 -14 6 -6 3 7 2 16 -1 19 -3 4 -6 -2 -5 -13z"/>
<path d="M6181 2504 c0 -11 3 -14 6 -6 3 7 2 16 -1 19 -3 4 -6 -2 -5 -13z"/>
<path d="M421 2494 c0 -11 3 -14 6 -6 3 7 2 16 -1 19 -3 4 -6 -2 -5 -13z"/>
<path d="M751 2474 c0 -11 3 -14 6 -6 3 7 2 16 -1 19 -3 4 -6 -2 -5 -13z"/>
<path d="M6171 2464 c0 -11 3 -14 6 -6 3 7 2 16 -1 19 -3 4 -6 -2 -5 -13z"/>
<path d="M431 2454 c0 -11 3 -14 6 -6 3 7 2 16 -1 19 -3 4 -6 -2 -5 -13z"/>
<path d="M591 2454 c0 -11 3 -14 6 -6 3 7 2 16 -1 19 -3 4 -6 -2 -5 -13z"/>
<path d="M6001 2434 c0 -11 3 -14 6 -6 3 7 2 16 -1 19 -3 4 -6 -2 -5 -13z"/>
<path d="M441 2414 c0 -11 3 -14 6 -6 3 7 2 16 -1 19 -3 4 -6 -2 -5 -13z"/>
<path d="M5360 1774 c-8 -15 -10 -28 -4 -33 5 -5 78 -55 163 -111 l155 -103
18 23 c10 13 15 26 11 30 -8 7 -296 199 -319 213 -6 3 -17 -5 -24 -19z"/>
<path d="M1115 1684 c-82 -58 -154 -109 -158 -113 -4 -4 0 -18 10 -30 l18 -22
155 107 c85 58 159 110 163 114 11 10 -10 50 -26 49 -7 0 -79 -48 -162 -105z"/>
<path d="M1185 1584 c-82 -64 -151 -119 -153 -123 -1 -4 4 -16 12 -26 13 -17
18 -18 35 -7 15 9 270 203 300 228 5 5 -30 44 -38 44 -3 0 -73 -52 -156 -116z"/>
<path d="M5292 1688 c-6 -7 -12 -18 -14 -25 -2 -6 69 -63 157 -126 158 -115
160 -116 178 -95 9 11 17 23 17 27 -1 6 -303 223 -319 229 -4 1 -13 -3 -19
-10z"/>
<path d="M5167 1463 c-14 -14 -40 -18 -122 -21 l-105 -4 0 -30 c0 -23 4 -28
18 -24 34 10 144 27 148 23 5 -4 -101 -100 -211 -193 -180 -151 -407 -283
-657 -384 l-72 -28 -30 23 c-90 69 -201 92 -273 59 -63 -31 -69 -50 -49 -174
3 -14 5 -30 5 -37 1 -6 13 -11 28 -10 27 2 28 0 58 -127 29 -121 33 -130 59
-139 15 -5 29 -7 32 -4 3 2 -9 62 -26 132 -16 70 -30 135 -30 144 0 13 16 22
58 34 31 9 78 23 104 31 l47 15 27 -81 27 -82 -23 -18 c-32 -26 -66 -23 -86 7
-23 35 -7 71 35 80 38 8 31 35 -10 35 -45 0 -93 -49 -93 -94 0 -76 83 -113
162 -72 32 16 32 16 42 -8 9 -24 54 -46 67 -32 3 3 -15 65 -41 138 -25 73 -46
136 -46 140 0 8 58 35 95 44 18 5 25 -2 39 -41 17 -44 17 -47 0 -59 -26 -19
-11 -42 40 -61 47 -18 82 -14 73 8 -3 6 -8 20 -12 29 -5 13 4 21 41 37 25 12
48 21 50 21 2 0 15 -22 29 -49 19 -39 31 -51 55 -56 17 -4 33 -5 35 -3 3 2
-26 66 -63 143 -37 76 -62 140 -57 142 6 2 62 35 124 73 105 65 114 69 127 53
7 -10 14 -22 14 -28 0 -5 -45 -37 -100 -70 -55 -33 -100 -66 -100 -73 0 -21
27 -25 54 -7 26 17 26 17 26 -7 0 -14 11 -35 24 -47 30 -28 138 -73 149 -62
18 18 1 43 -36 56 -50 17 -87 52 -87 82 0 17 13 32 47 53 26 17 50 30 53 30 4
0 27 -29 53 -65 40 -55 51 -65 77 -65 16 0 30 4 30 10 0 5 -18 35 -40 66 -55
78 -52 134 7 134 28 0 53 -44 53 -95 0 -31 3 -35 25 -35 19 0 25 6 27 23 4 69
-16 128 -51 147 -49 26 -105 8 -136 -43 -9 -15 -13 -13 -32 17 l-21 33 85 69
c126 102 116 97 147 83 34 -16 43 -52 21 -85 -20 -31 -9 -49 41 -63 61 -17
131 16 159 75 15 33 17 33 40 18 17 -11 34 -14 56 -9 l32 7 -108 108 c-100
100 -106 109 -94 128 12 18 11 24 -2 37 -13 13 -17 13 -32 -2z m30 -145 c57
-56 64 -79 38 -128 -19 -36 -49 -54 -80 -46 -21 5 -22 9 -13 34 16 42 2 80
-38 104 l-35 21 32 33 c18 19 35 34 38 34 3 0 29 -23 58 -52z m-699 -485 c23
-53 24 -51 -43 -79 l-36 -15 -19 43 c-26 58 -26 60 18 80 54 24 57 23 80 -29z
m-446 -10 c26 -14 45 -30 42 -34 -5 -9 -134 -51 -190 -63 -26 -6 -32 -3 -42
19 -7 14 -12 34 -12 44 0 18 33 54 60 64 27 11 93 -3 142 -30z"/>
<path d="M1456 1451 c-16 -18 -15 -21 33 -61 28 -24 51 -48 51 -54 0 -18 -53
-66 -73 -66 -17 0 -19 5 -14 40 5 38 4 40 -23 40 -27 0 -28 -2 -43 -87 -9 -49
-19 -109 -23 -135 l-6 -48 31 0 c29 0 31 2 31 38 0 20 3 54 6 74 6 32 9 36 25
28 33 -18 56 -10 97 32 l41 42 44 -40 c25 -21 43 -45 41 -53 -6 -20 -48 -70
-59 -70 -5 -1 -28 17 -51 40 l-41 41 -5 -26 c-4 -19 3 -33 28 -57 19 -18 34
-37 34 -42 0 -5 -13 -26 -30 -47 -30 -38 -35 -59 -21 -94 6 -17 23 0 105 102
l98 122 39 -31 c21 -17 39 -32 39 -35 0 -2 -36 -52 -79 -110 -73 -99 -78 -109
-69 -135 5 -16 13 -29 17 -29 4 0 47 54 95 120 71 97 91 118 102 109 16 -13
44 -5 44 13 0 7 -51 51 -113 98 -61 46 -162 133 -223 192 -107 105 -111 107
-128 89z"/>
<path d="M2089 1081 c-16 -16 -29 -39 -29 -50 0 -12 -10 -31 -22 -43 l-22 -22
22 -9 c12 -6 22 -14 22 -18 0 -5 -26 -60 -57 -123 -56 -113 -57 -115 -42 -147
l16 -33 72 137 c40 75 74 137 75 137 4 0 179 -81 184 -85 1 -1 -13 -38 -31
-81 -29 -68 -37 -79 -61 -82 -57 -7 -101 59 -64 96 17 17 58 15 78 -3 16 -14
18 -14 23 4 7 27 -23 52 -72 58 -35 5 -44 2 -71 -25 -42 -42 -41 -83 3 -127
20 -20 48 -36 71 -40 34 -7 37 -10 32 -34 -4 -17 1 -34 13 -50 l19 -25 17 40
c9 21 35 84 57 139 23 55 42 102 44 103 6 8 204 -72 204 -83 0 -22 -11 -23
-67 -7 -55 15 -56 15 -74 -7 -23 -28 -24 -43 -4 -81 9 -17 12 -30 7 -30 -5 0
-14 -12 -21 -26 -15 -34 3 -71 45 -96 36 -21 75 -24 152 -13 47 6 52 5 52 -12
0 -20 26 -63 39 -63 4 0 25 65 46 145 21 80 43 145 49 145 6 0 27 -5 47 -10
l36 -10 -22 -135 -21 -135 23 -22 c13 -12 25 -19 28 -17 2 3 15 70 27 149 22
137 24 144 48 150 14 3 26 13 28 21 2 13 -25 21 -138 43 -153 30 -292 70 -406
117 -70 29 -72 31 -83 76 -25 97 -83 179 -144 202 -52 20 -96 14 -128 -18z
m151 -48 c40 -36 86 -146 64 -151 -9 -2 -58 18 -110 45 -88 45 -94 50 -89 73
16 65 82 81 135 33z m477 -359 c1 -5 -5 -40 -15 -78 l-18 -70 -49 -17 c-87
-30 -165 -21 -165 20 0 32 25 45 61 32 42 -14 41 -15 37 12 -2 17 -13 24 -46
32 -48 12 -75 41 -47 51 14 6 78 -6 119 -22 10 -4 16 -1 16 9 0 9 4 27 9 40
10 24 11 25 52 13 24 -7 44 -17 46 -22z"/>
<path d="M3550 670 c-30 -5 -133 -8 -227 -9 -162 -1 -173 -2 -173 -20 0 -14
10 -20 42 -24 45 -6 68 -27 68 -62 0 -29 -19 -45 -52 -45 -22 0 -28 -5 -28
-21 0 -37 30 -86 63 -104 33 -17 111 -18 149 -1 13 6 19 2 24 -18 3 -15 19
-33 35 -42 l29 -14 -5 92 c-3 51 -7 121 -10 156 l-4 62 44 0 c52 0 47 10 69
-155 11 -80 20 -113 32 -122 24 -17 44 -16 44 2 0 14 -25 199 -35 258 -4 22
-1 27 15 27 15 0 20 7 20 25 0 28 -3 28 -100 15z m-146 -87 c3 -21 6 -59 6
-86 0 -43 -3 -49 -32 -67 -36 -22 -79 -26 -109 -10 -27 15 -24 47 5 54 33 8
52 57 39 101 -11 34 -11 34 26 38 20 2 41 4 47 5 6 1 14 -15 18 -35z"/>
<path d="M4588 594 c-36 -19 -55 -53 -37 -65 22 -14 33 -11 47 12 19 29 56 22
60 -12 5 -42 -40 -71 -100 -67 -27 2 -48 0 -48 -4 0 -3 -3 -13 -6 -22 -4 -11
4 -17 31 -22 81 -15 185 50 185 115 0 65 -69 100 -132 65z"/>
</g>
</svg>
