<?xml version="1.0" standalone="no"?>
<!DOCTYPE svg PUBLIC "-//W3C//DTD SVG 20010904//EN"
 "http://www.w3.org/TR/2001/REC-SVG-20010904/DTD/svg10.dtd">
<svg version="1.0" xmlns="http://www.w3.org/2000/svg"
 width="1712.000000pt" height="396.000000pt" viewBox="0 0 1712.000000 396.000000"
 preserveAspectRatio="xMidYMid meet">

<g transform="translate(0.000000,396.000000) scale(0.100000,-0.100000)"
fill="#000000" stroke="none">
<path d="M0 1980 l0 -1980 8560 0 8560 0 0 1980 0 1980 -8560 0 -8560 0 0
-1980z m1242 663 c15 -14 18 -32 18 -120 0 -147 6 -143 -211 -143 -158 0 -171
-1 -167 -17 8 -29 270 -687 278 -696 3 -4 93 212 199 480 106 269 200 494 209
501 11 8 54 12 133 12 110 0 119 -1 133 -22 9 -12 16 -32 16 -43 0 -12 -36
-111 -81 -221 -120 -296 -323 -798 -391 -969 -33 -82 -69 -159 -79 -170 -16
-17 -35 -21 -111 -24 -50 -2 -108 2 -129 8 -43 13 -22 -30 -219 456 -78 193
-193 478 -256 633 -72 179 -113 291 -109 303 16 49 12 49 392 49 318 0 358 -2
375 -17z m1461 -14 c13 -17 17 -40 17 -114 0 -51 -3 -101 -6 -110 -4 -9 -36
-29 -71 -45 -90 -41 -153 -97 -193 -171 -44 -83 -60 -148 -60 -249 0 -198 81
-344 230 -413 102 -47 100 -45 100 -162 0 -88 -3 -104 -20 -123 -27 -28 -66
-28 -151 1 -137 47 -276 159 -348 280 -80 136 -119 330 -101 507 13 120 31
185 83 285 53 103 182 237 272 279 138 66 213 77 248 35z m321 7 c199 -63 361
-217 422 -399 16 -47 15 -50 -3 -76 -19 -25 -25 -26 -127 -29 -62 -1 -114 2
-126 8 -11 6 -29 29 -41 51 -47 92 -155 176 -251 193 -57 10 -68 34 -68 145 0
74 4 98 17 113 23 25 86 23 177 -6z m1892 3 c14 -15 20 -40 22 -94 5 -88 -9
-138 -44 -154 -18 -8 -166 -11 -509 -11 -343 0 -491 3 -509 11 -35 16 -49 66
-44 154 6 126 -45 115 553 115 506 0 512 0 531 -21z m613 -5 c17 -22 21 -41
21 -106 0 -82 -15 -130 -45 -142 -9 -3 -70 -6 -136 -6 -114 0 -121 1 -144 25
-23 22 -25 32 -25 117 0 139 -2 138 170 138 138 0 139 0 159 -26z m861 4 c17
-19 20 -35 20 -115 0 -86 -2 -96 -25 -118 -24 -25 -25 -25 -230 -25 l-205 0 0
-563 c0 -669 16 -602 -146 -602 -161 0 -145 -85 -144 725 0 620 2 685 17 702
15 17 40 18 354 18 335 0 338 0 359 -22z m1160 1 c185 -50 345 -187 425 -361
84 -185 88 -452 9 -640 -62 -149 -177 -275 -307 -338 -145 -70 -179 -74 -550
-75 l-329 0 -24 28 c-21 25 -24 37 -24 116 0 72 4 93 19 112 l19 24 339 5
c320 5 340 6 385 27 100 46 169 126 209 243 32 95 31 239 -3 335 -43 124 -134
221 -235 251 -35 11 -120 14 -342 14 -166 0 -312 4 -332 10 -47 13 -59 42 -59
144 0 135 -26 126 383 126 315 0 348 -2 417 -21z m1954 -1 c25 -35 22 -198 -3
-229 l-19 -24 -494 -3 c-599 -3 -548 -16 -548 140 0 80 3 105 17 120 15 17 45
18 524 18 l508 0 15 -22z m960 0 c22 -31 22 -194 1 -225 -8 -12 -39 -29 -68
-38 -78 -26 -129 -59 -182 -117 -83 -93 -115 -179 -115 -318 0 -214 116 -380
298 -429 73 -20 82 -36 82 -146 0 -88 -2 -98 -25 -120 -28 -29 -57 -31 -133
-11 -223 60 -410 240 -486 469 -57 172 -40 421 41 580 105 207 335 372 525
376 38 1 50 -3 62 -21z m359 -16 c193 -78 330 -225 403 -433 21 -59 27 -99 31
-203 11 -262 -51 -424 -227 -589 -107 -100 -268 -177 -372 -177 -55 0 -68 28
-68 143 0 121 1 123 98 155 196 65 308 272 273 503 -28 178 -136 306 -302 355
-27 8 -53 23 -59 34 -5 10 -10 63 -10 116 0 126 9 138 95 131 34 -2 94 -18
138 -35z m1692 23 c225 -59 361 -259 341 -502 -12 -147 -94 -278 -211 -333
-27 -13 -51 -24 -53 -26 -6 -4 16 -40 153 -248 74 -112 137 -215 140 -228 4
-16 -1 -33 -15 -51 -21 -27 -23 -27 -136 -27 -64 0 -123 4 -133 10 -10 5 -87
118 -171 250 l-152 240 -164 0 -164 0 0 -225 0 -226 -25 -24 c-22 -23 -31 -25
-123 -25 -83 0 -104 3 -123 19 l-24 19 0 346 0 345 23 23 c22 23 24 23 390 28
404 5 401 5 455 70 31 36 42 85 33 147 -8 58 -43 105 -99 132 -41 20 -58 21
-380 21 -434 0 -427 -3 -427 154 0 59 4 78 21 100 l20 26 383 0 c311 0 393 -3
441 -15z m1015 -5 c19 -19 20 -33 20 -417 0 -422 6 -496 45 -573 30 -58 105
-126 157 -142 65 -19 78 -45 78 -155 0 -86 -2 -96 -25 -118 -28 -29 -40 -30
-115 -10 -192 51 -348 207 -413 413 -20 63 -21 93 -25 524 -4 549 -19 498 148
498 97 0 112 -2 130 -20z m966 -1 c18 -20 19 -44 22 -393 3 -399 -5 -539 -39
-638 -58 -173 -193 -310 -363 -370 -98 -34 -129 -35 -156 -6 -17 19 -20 35
-20 123 0 116 10 135 81 157 53 15 133 93 160 153 32 71 39 185 38 584 0 339
1 375 17 392 15 16 32 19 129 19 101 0 114 -2 131 -21z m772 4 c11 -10 106
-133 212 -273 105 -140 194 -256 198 -257 4 -1 95 118 202 264 107 145 202
269 212 274 9 5 69 9 132 9 103 0 118 -2 136 -20 20 -20 20 -33 20 -694 l0
-675 -26 -20 c-23 -18 -41 -21 -124 -21 -81 0 -102 3 -121 19 l-24 19 -5 438
-5 437 -154 -199 c-198 -256 -196 -254 -240 -254 -20 0 -41 4 -47 8 -5 4 -129
165 -274 357 -145 193 -292 387 -327 433 -68 89 -76 119 -43 152 18 18 33 20
139 20 99 0 122 -3 139 -17z m-10444 -574 c25 -20 26 -24 26 -120 0 -107 -11
-131 -62 -144 -13 -3 -222 -4 -465 -3 -442 3 -442 3 -465 25 -40 40 -38 203 3
244 18 18 37 19 478 19 449 0 459 0 485 -21z m4588 -17 c21 -20 23 -32 23
-121 0 -152 30 -141 -372 -141 l-333 0 0 -260 c0 -243 -1 -261 -19 -279 -24
-24 -95 -35 -174 -27 -104 11 -97 -19 -97 426 0 356 1 388 18 402 9 9 26 18
37 21 11 3 217 4 457 4 l437 -2 23 -23z m-5999 -311 c13 -5 30 -23 37 -41 12
-29 10 -37 -35 -128 -87 -176 -245 -302 -435 -346 -87 -21 -97 -20 -125 9 -23
22 -25 31 -25 117 1 63 5 99 14 111 8 10 41 25 73 33 107 28 180 87 234 189
13 24 33 48 44 54 26 12 186 14 218 2z m11811 -22 c42 -20 47 -51 44 -258 -4
-239 1 -231 -148 -231 -83 0 -101 3 -124 21 l-26 20 0 208 c0 256 -5 249 147
250 45 1 93 -4 107 -10z m-10313 -228 c22 -18 24 -26 24 -120 0 -91 -2 -102
-23 -123 l-23 -23 -504 0 -504 0 -23 23 c-19 18 -23 36 -26 97 -5 89 1 118 30
145 21 20 33 20 524 20 479 0 503 -1 525 -19z"/>
</g>
</svg>
